# xmcd
#
# Track frame offsets:
#	150
#	13905
#	29757
#	45052
#	55765
#	68885
#	81675
#	95362
#	107379
#	121300
#	137132
#	149232
#	160927
#	180445
#	192782
#	203750
#	220350
#	232552
#	245830
#	259025
#
# Disc length: 3641 seconds
#
# Revision: 1
# Processed by: cddbd v1.5.2PL0 Copyright (c) Steve Scherf et al.
# Submitted via: audiograbber 1.83.01
#
DISCID=1d0e3714
DTITLE=Various Artist - Muistojen 60-luku: 1969 [CD1)
DYEAR=2008
DGENRE=Oldies
TTITLE0=Markku Aro - Käyn Uudelleen Eiliseen
TTITLE1=Seija Simola - Kun Aika On
TTITLE2=Fredi - Se Päivä Tulee Kerran
TTITLE3=Inga Sulin - Kevätkoivu
TTITLE4=Tapani Kansa - Kuljen Taas Kotiinpäin
TTITLE5=Pasi Kaunisto - Sanat Eivät Riitä Kertomaan
TTITLE6=Päivi Paunu - Eilen Kun Mä Tiennyt En
TTITLE7=Eino Grön - Peyton Place
TTITLE8=Seija Simola - Sulle Silmäni Annan
TTITLE9=Markus - Viimeinen Kevät
TTITLE10=Georg Ots - Uudellen Jos Luokses Tulla Voisin
TTITLE11=Jarkko Ja Laura - Kuin Silloin Ennen
TTITLE12=Tapani Perttu - Nathalie
TTITLE13=Anki - Elän Yhä Muistoissain
TTITLE14=Kaj Chydenius - Sinua, Sinua Rakastan
TTITLE15=Kaisa Korhonen - Uralin Pihlaja
TTITLE16=Tapio Heinonen - Julian Grimau
TTITLE17=Katri Helena - Ei Kauniimpaa
TTITLE18=Pasi Kaunisto - Isadora
TTITLE19=Seija Simola - Näkemiin
EXTD=TR.
EXTT0=
EXTT1=
EXTT2=
EXTT3=
EXTT4=
EXTT5=
EXTT6=
EXTT7=
EXTT8=
EXTT9=
EXTT10=
EXTT11=
EXTT12=
EXTT13=
EXTT14=
EXTT15=
EXTT16=
EXTT17=
EXTT18=
EXTT19=
PLAYORDER=
